<?xml version="1.0" encoding="utf-8"?>
<!-- Generator: Adobe Illustrator 23.0.3, SVG Export Plug-In . SVG Version: 6.00 Build 0)  -->
<svg version="1.1" id="Layer_1" xmlns="http://www.w3.org/2000/svg" xmlns:xlink="http://www.w3.org/1999/xlink" x="0px" y="0px"
	 viewBox="0 0 107.1 56.7" style="enable-background:new 0 0 107.1 56.7;" xml:space="preserve">
<style type="text/css">
	.st0{fill:#4D4D4F;}
	.st1{fill:#0083C2;}
</style>
<g id="XMLID_71_">
	<g id="XMLID_133_">
		<path id="XMLID_194_" class="st0" d="M3,43.4v12.9H0.2V43.4H3z"/>
		<path id="XMLID_186_" class="st0" d="M7.5,52.8c0,1.2,0.6,1.8,1.7,1.8c0.6,0,1.1-0.2,1.4-0.7h2.7c-0.5,1.8-1.9,2.7-4.1,2.7
			c-0.7,0-1.3-0.1-1.8-0.3c-0.6-0.2-1-0.5-1.4-0.9c-0.5-0.4-0.8-0.8-1-1.3S4.7,53,4.7,52.4c0-0.7,0.1-1.3,0.3-1.8
			c0.2-0.5,0.5-1,0.9-1.4s0.8-0.7,1.4-0.9C7.8,48.1,8.4,48,9.1,48c0.7,0,1.3,0.1,1.8,0.3s1,0.5,1.4,0.9s0.7,0.9,0.9,1.4
			c0.2,0.6,0.3,1.2,0.3,1.9v0.3C13.5,52.8,7.5,52.8,7.5,52.8z M10.8,51.2c-0.1-0.4-0.3-0.7-0.6-0.9s-0.6-0.4-1.1-0.4
			c-0.4,0-0.8,0.1-1.1,0.3c-0.3,0.2-0.4,0.5-0.5,1C7.5,51.2,10.8,51.2,10.8,51.2z"/>
		<path id="XMLID_178_" class="st0" d="M21.1,48.3H24v8h-2.8v-0.9c-0.6,0.8-1.4,1.1-2.4,1.1c-0.6,0-1.1-0.1-1.6-0.3
			s-0.9-0.5-1.3-0.9c-0.4-0.4-0.6-0.8-0.8-1.4c-0.2-0.5-0.3-1.1-0.3-1.7c0-0.6,0.1-1.1,0.3-1.6s0.5-1,0.8-1.3
			c0.4-0.4,0.8-0.7,1.3-0.9s1-0.3,1.6-0.3c1,0,1.8,0.3,2.5,1v-0.8H21.1z M17.6,52.3c0,0.3,0,0.5,0.1,0.7s0.2,0.4,0.4,0.6
			c0.2,0.2,0.4,0.3,0.6,0.4c0.2,0.1,0.5,0.1,0.7,0.1s0.5,0,0.7-0.1s0.4-0.2,0.6-0.4s0.3-0.4,0.4-0.6c0.1-0.2,0.1-0.5,0.1-0.7
			s0-0.5-0.1-0.7s-0.2-0.4-0.4-0.6c-0.2-0.2-0.4-0.3-0.6-0.4c-0.2-0.1-0.5-0.1-0.7-0.1c-0.3,0-0.5,0-0.7,0.1s-0.4,0.2-0.6,0.4
			s-0.3,0.4-0.4,0.6C17.7,51.8,17.6,52,17.6,52.3z"/>
		<path id="XMLID_176_" class="st0" d="M25.9,48.3h2.8v1.3c0.3-0.5,0.7-0.8,1.1-1.1s0.9-0.4,1.5-0.4c0.1,0,0.2,0,0.2,0
			c0.1,0,0.2,0,0.3,0v2.7c-0.4-0.2-0.8-0.3-1.2-0.3c-0.7,0-1.1,0.2-1.5,0.6c-0.3,0.4-0.5,1-0.5,1.7v3.4h-2.8v-7.9H25.9z"/>
		<path id="XMLID_174_" class="st0" d="M33.1,48.3h2.8v1c0.4-0.5,0.8-0.8,1.2-0.9c0.4-0.2,0.9-0.2,1.4-0.2c0.6,0,1,0.1,1.4,0.3
			s0.7,0.4,1,0.8c0.2,0.3,0.4,0.6,0.5,0.9c0.1,0.3,0.1,0.7,0.1,1.1v5.1h-2.8v-4c0-0.4,0-0.7-0.1-1c-0.1-0.2-0.2-0.4-0.3-0.6
			c-0.1-0.1-0.3-0.2-0.4-0.3c-0.2-0.1-0.3-0.1-0.5-0.1c-0.5,0-0.8,0.1-1.1,0.4c-0.3,0.3-0.4,0.7-0.4,1.2v4.3h-2.8
			C33.1,56.3,33.1,48.3,33.1,48.3z"/>
		<path id="XMLID_151_" class="st1" d="M43.1,52.2c0-0.6,0.1-1.1,0.4-1.7c0.2-0.5,0.6-1,1-1.3c0.4-0.4,0.9-0.7,1.5-0.9
			s1.2-0.3,1.9-0.3s1.3,0.1,1.9,0.3c0.6,0.2,1.1,0.5,1.5,0.9s0.8,0.8,1,1.4c0.2,0.5,0.4,1.1,0.4,1.7c0,0.6-0.1,1.2-0.4,1.7
			c-0.2,0.5-0.6,1-1,1.4s-0.9,0.7-1.5,0.9s-1.2,0.3-1.9,0.3s-1.3-0.1-1.9-0.3c-0.6-0.2-1.1-0.5-1.5-0.9s-0.7-0.8-1-1.4
			C43.2,53.5,43.1,52.9,43.1,52.2z M46.1,52.3c0,0.3,0,0.5,0.1,0.7s0.2,0.4,0.4,0.6c0.2,0.2,0.4,0.3,0.6,0.4
			c0.2,0.1,0.5,0.1,0.7,0.1s0.5,0,0.7-0.1s0.4-0.2,0.6-0.4c0.2-0.2,0.3-0.4,0.4-0.6c0.1-0.2,0.1-0.5,0.1-0.7s0-0.5-0.1-0.7
			s-0.2-0.4-0.4-0.6c-0.2-0.2-0.4-0.3-0.6-0.4c-0.2-0.1-0.5-0.1-0.7-0.1s-0.5,0-0.7,0.1s-0.4,0.2-0.6,0.4c-0.2,0.2-0.3,0.4-0.4,0.6
			C46.1,51.8,46.1,52,46.1,52.3z"/>
		<path id="XMLID_149_" class="st1" d="M54.3,48.3h2.8v1c0.4-0.5,0.8-0.8,1.2-0.9c0.4-0.2,0.9-0.2,1.4-0.2c0.6,0,1,0.1,1.4,0.3
			s0.7,0.4,1,0.8c0.2,0.3,0.4,0.6,0.5,0.9c0.1,0.3,0.1,0.7,0.1,1.1v5.1h-2.8v-4c0-0.4,0-0.7-0.1-1c-0.1-0.2-0.2-0.4-0.3-0.6
			c-0.1-0.1-0.3-0.2-0.4-0.3c-0.2-0.1-0.3-0.1-0.5-0.1c-0.5,0-0.8,0.1-1.1,0.4c-0.3,0.3-0.4,0.7-0.4,1.2v4.3h-2.8
			C54.3,56.3,54.3,48.3,54.3,48.3z"/>
		<path id="XMLID_147_" class="st0" d="M70.6,50.9c-0.5-0.3-1-0.5-1.5-0.5c-0.3,0-0.5,0-0.8,0.1c-0.2,0.1-0.4,0.2-0.6,0.4
			s-0.3,0.4-0.4,0.6c-0.1,0.2-0.1,0.5-0.1,0.8s0,0.5,0.1,0.8c0.1,0.2,0.2,0.4,0.4,0.6s0.4,0.3,0.6,0.4c0.2,0.1,0.5,0.1,0.8,0.1
			c0.5,0,1-0.2,1.5-0.5v2.4c-0.7,0.3-1.4,0.5-2,0.5s-1.1-0.1-1.7-0.3c-0.5-0.2-1-0.5-1.4-0.8c-0.4-0.4-0.7-0.8-1-1.3
			c-0.2-0.5-0.4-1.1-0.4-1.7c0-0.6,0.1-1.2,0.3-1.7c0.2-0.5,0.5-1,0.9-1.4s0.9-0.7,1.4-0.9s1.1-0.3,1.7-0.3c0.7,0,1.3,0.1,1.9,0.4
			v2.3H70.6z"/>
		<path id="XMLID_143_" class="st0" d="M72.6,43.4h2.8v5.9c0.4-0.5,0.8-0.8,1.2-0.9c0.4-0.2,0.9-0.2,1.4-0.2c1,0,1.8,0.3,2.3,0.8
			c0.5,0.6,0.8,1.3,0.8,2.2v5.1h-2.8v-4c0-0.4,0-0.7-0.1-1c-0.1-0.2-0.2-0.4-0.3-0.6c-0.2-0.2-0.5-0.3-0.9-0.3
			c-0.5,0-0.8,0.1-1.1,0.4c-0.3,0.3-0.4,0.7-0.4,1.2v4.3h-2.8L72.6,43.4L72.6,43.4z"/>
		<path id="XMLID_140_" class="st0" d="M89.1,48.3h2.8v8h-2.8v-0.9c-0.6,0.8-1.4,1.1-2.4,1.1c-0.6,0-1.1-0.1-1.6-0.3
			s-0.9-0.5-1.3-0.9s-0.6-0.8-0.8-1.4c-0.2-0.5-0.3-1.1-0.3-1.7c0-0.6,0.1-1.1,0.3-1.6c0.2-0.5,0.5-1,0.8-1.3
			c0.4-0.4,0.8-0.7,1.3-0.9s1-0.3,1.6-0.3c1,0,1.8,0.3,2.5,1L89.1,48.3L89.1,48.3z M85.5,52.3c0,0.3,0,0.5,0.1,0.7s0.2,0.4,0.4,0.6
			c0.2,0.2,0.4,0.3,0.6,0.4c0.2,0.1,0.5,0.1,0.7,0.1s0.5,0,0.7-0.1s0.4-0.2,0.6-0.4s0.3-0.4,0.4-0.6c0.1-0.2,0.1-0.5,0.1-0.7
			s0-0.5-0.1-0.7s-0.2-0.4-0.4-0.6c-0.2-0.2-0.4-0.3-0.6-0.4c-0.2-0.1-0.5-0.1-0.7-0.1c-0.3,0-0.5,0-0.7,0.1S86.2,50.8,86,51
			s-0.3,0.4-0.4,0.6C85.6,51.8,85.5,52,85.5,52.3z"/>
		<path id="XMLID_137_" class="st0" d="M93.6,45.3c0-0.2,0-0.4,0.1-0.6c0.1-0.2,0.2-0.4,0.3-0.5c0.1-0.1,0.3-0.3,0.5-0.3
			c0.2-0.1,0.4-0.1,0.6-0.1s0.4,0,0.6,0.1s0.4,0.2,0.5,0.3s0.3,0.3,0.3,0.5c0.1,0.2,0.1,0.4,0.1,0.6c0,0.2,0,0.4-0.1,0.6
			c-0.1,0.2-0.2,0.4-0.3,0.5c-0.1,0.1-0.3,0.3-0.5,0.3c-0.2,0.1-0.4,0.1-0.6,0.1s-0.4,0-0.6-0.1s-0.4-0.2-0.5-0.3s-0.3-0.3-0.3-0.5
			C93.7,45.7,93.6,45.5,93.6,45.3z M96.6,48.3v8h-2.8v-8H96.6z"/>
		<path id="XMLID_134_" class="st0" d="M98.5,48.3h2.8v1c0.4-0.5,0.8-0.8,1.2-0.9c0.4-0.2,0.9-0.2,1.4-0.2c0.6,0,1,0.1,1.4,0.3
			s0.7,0.4,1,0.8c0.2,0.3,0.4,0.6,0.5,0.9c0.1,0.3,0.1,0.7,0.1,1.1v5.1h-2.8v-4c0-0.4,0-0.7-0.1-1c-0.1-0.2-0.2-0.4-0.3-0.6
			c-0.1-0.1-0.3-0.2-0.4-0.3c-0.2-0.1-0.3-0.1-0.5-0.1c-0.5,0-0.8,0.1-1.1,0.4c-0.3,0.3-0.4,0.7-0.4,1.2v4.3h-2.8
			C98.5,56.3,98.5,48.3,98.5,48.3z"/>
	</g>
	<g id="XMLID_72_">
		<path id="XMLID_132_" class="st0" d="M68.6,19.9c0.2-0.5,0.3-1.1,0.2-1.7c-0.2-1.7,0-3.5,0.6-5.1c1.1-2.8,3.8-5.1,8-5.1h15.2l0,0
			c0.4,0,0.8,0,1.2,0.1c0.1,0,0.2,0,0.4,0.1c0.3,0,0.6,0.1,0.8,0.2c0.1,0,0.2,0.1,0.4,0.1c0.3,0.1,0.6,0.2,0.9,0.3
			c0.2,0.1,0.4,0.2,0.6,0.3c0.1,0,0.2,0.1,0.3,0.1c0.7,0.4,1.3,0.8,1.8,1.3l0,0c0.3,0.3,0.6,0.7,0.9,1l0,0c0.9,1.2,2.4,1.9,4.1,1.5
			c1.4-0.3,2.6-1.4,2.9-2.8c0.3-1.2,0.1-2.4-0.5-3.3c-2.7-4-7.3-6.8-13.6-6.8l0,0H77.4l0,0l0,0c-0.7,0-1.3,0-1.9,0.1
			c-0.2,0-0.3,0-0.5,0c-0.6,0.1-1.2,0.2-1.7,0.3c0,0,0,0-0.1,0l0,0c-5.6,1.2-9.4,5-11.3,9.7c-1.5,3.8-1.7,8.2-0.5,12.1
			c0.2,0.7,0.9,1.1,1.5,1.1C66.6,23.2,68,21.2,68.6,19.9z"/>
		<path id="XMLID_131_" class="st0" d="M96.7,33.3L96.7,33.3C96.8,33.3,96.8,33.3,96.7,33.3c4.3-0.9,7.4-3.3,9.5-6.3l0,0
			c0.5-0.6,0.7-1.4,0.7-2.3c0-0.8-0.3-1.6-0.7-2.3c-0.7-1-1.9-1.7-3.3-1.7c-1.3,0-2.5,0.6-3.2,1.6c-1.4,2-3.8,3.4-7.1,3.4H82.3l0,0
			h-0.7c-1,0-1.9,0.5-2.4,1.4l0,0c-0.5,0.8-1.1,1.6-1.7,2.4c-0.4,0.5-0.9,1-1.4,1.5c-1,1-0.4,2.6,1,2.6c0.1,0,0.2,0,0.3,0h4.9h10.3
			l0,0l0,0c0.7,0,1.3,0,1.9-0.1c0.2,0,0.3,0,0.5-0.1C95.6,33.5,96.1,33.4,96.7,33.3z"/>
		<g id="XMLID_128_">
			<path id="XMLID_130_" class="st0" d="M41.6,24.7c0-0.8-0.3-1.6-0.7-2.3c-0.7-1-1.9-1.7-3.3-1.7c-1.3,0-2.5,0.6-3.2,1.6
				c-1.4,2-3.8,3.4-7.1,3.4H17c-4.2,0-6.9-2.2-8-5.1c-0.5-1.3-0.8-4.2-0.7-5.7l0,0V7.1C8.2,5,6.7,3.2,4.6,3C2.2,2.8,0.2,4.6,0.2,7
				v10.3c0,2.2,0.5,4.4,1.3,6.4c2.3,5.7,7.4,10.1,15.4,10.1l0,0h10.3l0,0l0,0c0.7,0,1.3,0,1.9-0.1c0.2,0,0.3,0,0.5-0.1
				c0.6-0.1,1.2-0.2,1.7-0.3c0,0,0,0,0.1,0l0,0c4.2-0.9,7.4-3.3,9.5-6.3C41.3,26.3,41.6,25.6,41.6,24.7"/>
		</g>
		<path id="XMLID_127_" class="st1" d="M63,0.1c-0.1,0-18.8,0-18.8,0c-7.8,0.1-12.8,4.5-15.1,10.1c-0.2,0.4-0.3,0.9-0.5,1.3l0,0
			c-0.1,0.4-0.3,0.9-0.4,1.3c0,0.1,0,0.2,0,0.2c-0.1,0.4-0.2,0.8-0.2,1.1c0,0.1,0,0.2,0,0.2c-0.1,0.4-0.1,0.8-0.1,1.1
			c0,0.1,0,0.2,0,0.2c0,0.4,0,0.8,0,1.2c0,0.1,0,0.1,0,0.2c0,0.4,0,0.8,0.1,1.2c0,0.1,0,0.1,0,0.2c0,0.4,0.1,0.8,0.1,1.2
			c0,0.1,0,0.1,0,0.2c0.1,0.4,0.1,0.8,0.2,1.1V21l0,0c0.1,0.3,0.1,0.5,0.2,0.8c0.3,0.9,1.3,1.4,2.2,0.9c0.8-0.4,1.4-1.1,2-1.8
			c0.6-0.7,1.3-1.3,2.1-1.8c0.7-0.5,1.1-1.1,1-1.9c0-0.6,0-1.2,0-1.7c0.1-0.9,0.3-1.8,0.7-2.6c1.1-2.8,3.8-5.1,8-5.1h4.1h9.7
			c1.1,0,2.1-0.6,2.7-1.5c0.8-1.4,1.8-2.7,3-3.8C65,1.8,64.4,0.1,63,0.1z"/>
		<path id="XMLID_73_" class="st1" d="M78.6,11.4c-0.2-0.6-0.7-0.9-1.3-0.9c-0.9,0-2.2,0.2-3.3,0.8c-0.6,0.3-1.1,0.7-1.5,1.2
			s-0.7,1-0.9,1.5c-0.2,0.5-0.2,1.1-0.2,1.7c0.2,1.7,0,3.5-0.6,5c-1.1,2.8-3.8,5.1-8,5.1H44.5c0,0-1,0-1.4,1.1V27
			c-0.2,0.4-0.4,0.8-0.7,1.2c-0.7,1-1.4,1.9-2.3,2.7c-0.9,0.9-0.5,2.4,0.8,2.6c1.1,0.2,2.3,0.3,3.6,0.3h18.2c8,0,13.1-4.4,15.4-10.1
			C79.7,19.8,79.8,15.4,78.6,11.4z"/>
	</g>
</g>
</svg>
